<?xml version="1.0" encoding="UTF-8" standalone="no"?>
<!-- Created with Inkscape (http://www.inkscape.org/) -->

<svg
   width="512"
   height="512"
   viewBox="0 0 135.46666 135.46667"
   version="1.1"
   id="svg5"
   xml:space="preserve"
   sodipodi:docname="LibrusStatisticsLogo.svg"
   inkscape:version="1.2.2 (732a01da63, 2022-12-09)"
   inkscape:export-filename="LibrusStatisticsIcon.png"
   inkscape:export-xdpi="96"
   inkscape:export-ydpi="96"
   xmlns:inkscape="http://www.inkscape.org/namespaces/inkscape"
   xmlns:sodipodi="http://sodipodi.sourceforge.net/DTD/sodipodi-0.dtd"
   xmlns="http://www.w3.org/2000/svg"
   xmlns:svg="http://www.w3.org/2000/svg"><sodipodi:namedview
     id="namedview7"
     pagecolor="#ffffff"
     bordercolor="#000000"
     borderopacity="0.25"
     inkscape:showpageshadow="2"
     inkscape:pageopacity="0.0"
     inkscape:pagecheckerboard="0"
     inkscape:deskcolor="#d1d1d1"
     inkscape:document-units="px"
     showgrid="false"
     inkscape:zoom="1.4142136"
     inkscape:cx="225.92062"
     inkscape:cy="267.28636"
     inkscape:window-width="1920"
     inkscape:window-height="1009"
     inkscape:window-x="-8"
     inkscape:window-y="-8"
     inkscape:window-maximized="1"
     inkscape:current-layer="layer1" /><defs
     id="defs2" /><g
     inkscape:label="Warstwa 1"
     inkscape:groupmode="layer"
     id="layer1"><g
       id="g5212"
       transform="translate(-34.286689,-1.5390767)"><g
         id="g5275"
         transform="translate(-15.223458,2.3149998)" /><g
         id="g1778"
         transform="matrix(0.76577716,0,0,0.76577716,-41.486064,30.285967)"
         style="fill:#1d2933;fill-opacity:1"><g
           id="g8228"
           transform="matrix(2.9683785,0,0,2.9683785,-240.80989,-241.80002)"
           style="fill:#1d2933;fill-opacity:1"><g
             id="g5303"
             transform="translate(93.170156,-4.115951)"
             style="fill:#1d2933;fill-opacity:1"><path
               id="rect5071"
               style="fill:#1d2933;fill-opacity:1;fill-rule:evenodd;stroke-width:2.70508;stroke-linejoin:bevel"
               d="m 47.271043,87.442357 6.223851,1.099077 v 9.561623 L 48.329376,95.904903 V 89.17753 Z"
               sodipodi:nodetypes="cccccc" /><path
               id="rect5071-9"
               style="fill:#1d2933;fill-opacity:1;fill-rule:evenodd;stroke-width:2.45508;stroke-linejoin:bevel"
               d="m 56.350456,98.073874 h 4.971227 l 2.269261,8.816306 H 56.35046 Z"
               sodipodi:nodetypes="ccccc" /><path
               id="rect5071-5"
               style="fill:#1d2933;fill-opacity:1;fill-rule:evenodd;stroke-width:1.78986;stroke-linejoin:bevel"
               d="m 53.184382,95.126213 h 7.281995 l 0.864393,2.979134 0.06307,0.249596 -5.042386,-0.0191 -0.0036,-0.232793 H 53.476543 L 53.24262,97.993928 Z"
               sodipodi:nodetypes="ccccccccc" /><path
               id="rect5071-5-8"
               style="fill:#1d2933;fill-opacity:1;fill-rule:evenodd;stroke-width:1.96108;stroke-linejoin:bevel"
               d="m 49.309992,103.30765 h 7.343105 v 3.58253 h -9.459771 l 1.161371,-0.99584 z"
               sodipodi:nodetypes="cccccc" /><path
               id="rect5071-5-8-7"
               style="fill:#1d2933;fill-opacity:1;fill-rule:evenodd;stroke-width:0.987221;stroke-linejoin:bevel"
               d="m 50.368326,101.91489 h 3.116025 l -0.0051,1.87946 -4.234802,-0.003 0.07419,-0.51661 z"
               sodipodi:nodetypes="cccccc" /><g
               id="g5202"
               transform="translate(-15.205483,2.3564427)"
               style="fill:#1d2933;fill-opacity:1"><path
                 id="rect5071-5-8-9"
                 style="fill:#1d2933;fill-opacity:1;fill-rule:evenodd;stroke-width:2.19414;stroke-linejoin:bevel"
                 d="m 75.042693,89.695811 -3.622616,0.02546 0.132768,-0.170049 -3.40825,-0.100922 v -3.363504 l 0.547961,0.09659 5.389967,1.070699 0.909387,2.285393 z"
                 sodipodi:nodetypes="ccccccccc" /><path
                 id="rect5071-5-8-7-5"
                 style="fill:#1d2933;fill-opacity:1;fill-rule:evenodd;stroke-width:0.987221;stroke-linejoin:bevel"
                 d="m 75.460102,90.976067 -5.033443,-0.015 1.139821,-1.424884 h 3.42438 z"
                 sodipodi:nodetypes="ccccc" /></g></g></g><g
           id="g8234"
           transform="matrix(6.1653107,0,0,6.1653107,-640.9781,-531.64608)"
           style="fill:#1d2933;fill-opacity:1"><g
             id="g5293"
             transform="translate(43.965837,-3.180507)"
             style="fill:#1d2933;fill-opacity:1"><path
               id="rect5071-5-8-71"
               style="fill:#1d2933;fill-opacity:1;fill-rule:evenodd;stroke-width:1.96108;stroke-linejoin:bevel"
               transform="matrix(-1,0,0,1,-15.223459,2.3149998)"
               d="m -112.69811,100.24152 9.09207,-0.0234 v 3.57363 h -9.07405 -2.7457 l 1.21105,-0.92665 0.75547,-0.78271 z"
               sodipodi:nodetypes="cccccccc" /><path
               id="rect5071-5-8-7-4"
               style="fill:#1d2933;fill-opacity:1;fill-rule:evenodd;stroke-width:1.37221;stroke-linejoin:bevel"
               d="m 96.498161,100.35424 h -4.17435 l 0.06935,2.33942 5.131593,-0.0162 -0.01387,-0.0399 z"
               sodipodi:nodetypes="cccccc" /><path
               id="rect5071-54"
               style="fill:#1d2933;fill-opacity:1;fill-rule:evenodd;stroke-width:3.40321;stroke-linejoin:bevel"
               d="m 82.175516,89.233223 2.281061,0.378677 3.942789,0.679656 -0.0013,12.241354 0.118682,1.9e-4 0.0042,3.57366 -0.138977,-1.4e-4 -5.148035,-1.05847 -0.740341,-1.81891 -1.905492,-1.83507 2.645833,0.4182 V 90.64302 Z"
               sodipodi:nodetypes="ccccccccccccc" /></g></g></g></g></g></svg>
